<svg xmlns="http://www.w3.org/2000/svg" width="177" height="61" viewBox="0 0 177 61"><path fill="#fff" d="M173.27 18.69c0-.79.63-1.42 1.42-1.42.8 0 1.43.63 1.43 1.42 0 .79-.63 1.42-1.43 1.42-.79 0-1.42-.63-1.42-1.42zm-.27 0a1.7 1.7 0 0 0 3.39 0 1.7 1.7 0 0 0-3.39 0z"/><path fill="#fff" d="M174.65 18.16c.13 0 .25.05.33.13l.15-.11a.73.73 0 0 0-.48-.18c-.36 0-.65.25-.65.56 0 .32.29.57.65.57.18 0 .36-.08.48-.19l-.15-.11a.47.47 0 0 1-.33.13c-.26 0-.46-.17-.46-.4 0-.22.2-.4.46-.4"/><path d="M90.55 30.36l-3.16 8.41-2.92-8.6L79.81 17H71l12.23 29.99-5.71 13.24h8.31L104.52 17h-8.38zM7.22 33.04a8.9 8.9 0 1 1 17.8 0c0 5.01-4 9-8.84 9a8.91 8.91 0 0 1-8.96-9zM25.06 17v2.61A16.11 16.11 0 0 0 16.19 17C7.02 17 0 24.1 0 33.04s7.02 16.04 16.19 16.04c3.31 0 6.35-.96 8.87-2.61v2.61h5.98v-.01s1.24.03 1.27-1.24V18.29c0-1.32-1.27-1.29-1.27-1.29zM111.32 32.78c0-4.93 4-8.86 9.09-8.86 4.9 0 8.96 3.93 8.96 8.86a8.91 8.91 0 0 1-8.96 8.86 8.9 8.9 0 0 1-9.09-8.86zM129.41 17v2.57a16.67 16.67 0 0 0-9-2.57C111.12 17 104 23.99 104 32.78c0 8.8 7.12 15.78 16.41 15.78 3.36 0 6.44-.94 9-2.56v2.56h6.06s1.26.03 1.29-1.22V18.27c0-1.3-1.29-1.27-1.29-1.27zM42.32 32.61c0-4.97 4-8.91 9.09-8.91 4.9 0 8.96 3.94 8.96 8.91 0 4.96-4.06 8.9-8.96 8.9a8.92 8.92 0 0 1-9.09-8.9zm18.09-13.29a16.67 16.67 0 0 0-9-2.58C42.12 16.74 35 23.76 35 32.61c0 8.84 7.12 15.86 16.41 15.86 3.36 0 6.44-.94 9-2.58v2.58h6.06s1.26.03 1.29-1.23V5.35c0-3.03-7.35-5.35-7.35-5.35zM156.38 27.42L149.45 17H140v.19l11.14 15.59L140 48.37v.19h9.45l6.93-10.41 6.93 10.41h9.45v-.19l-11.14-15.59 11.14-15.59V17h-9.45z"/></svg>